<?xml version="1.0" encoding="UTF-8"?>
<!--Generator: Apple Native CoreSVG 175-->
<!DOCTYPE svg
PUBLIC "-//W3C//DTD SVG 1.1//EN"
       "http://www.w3.org/Graphics/SVG/1.1/DTD/svg11.dtd">
<svg version="1.1" xmlns="http://www.w3.org/2000/svg" xmlns:xlink="http://www.w3.org/1999/xlink" width="3300" height="2200">
 <!--glyph: "uni1002C6.medium", point size: 100.0, font version: "17.1d1e1", template writer version: "65.1"-->
 <g id="Notes">
  <rect height="2200" id="artboard" style="fill:white;opacity:1" width="3300" x="0" y="0"/>
  <line style="fill:none;stroke:black;opacity:1;stroke-width:0.5;" x1="263" x2="3036" y1="292" y2="292"/>
  <text style="stroke:none;fill:black;font-family:sans-serif;font-size:13;font-weight:bold;" transform="matrix(1 0 0 1 263 322)">Weight/Scale Variations</text>
  <text style="stroke:none;fill:black;font-family:sans-serif;font-size:13;text-anchor:middle;" transform="matrix(1 0 0 1 559.711 322)">Ultralight</text>
  <text style="stroke:none;fill:black;font-family:sans-serif;font-size:13;text-anchor:middle;" transform="matrix(1 0 0 1 856.422 322)">Thin</text>
  <text style="stroke:none;fill:black;font-family:sans-serif;font-size:13;text-anchor:middle;" transform="matrix(1 0 0 1 1153.13 322)">Light</text>
  <text style="stroke:none;fill:black;font-family:sans-serif;font-size:13;text-anchor:middle;" transform="matrix(1 0 0 1 1449.84 322)">Regular</text>
  <text style="stroke:none;fill:black;font-family:sans-serif;font-size:13;text-anchor:middle;" transform="matrix(1 0 0 1 1746.56 322)">Medium</text>
  <text style="stroke:none;fill:black;font-family:sans-serif;font-size:13;text-anchor:middle;" transform="matrix(1 0 0 1 2043.27 322)">Semibold</text>
  <text style="stroke:none;fill:black;font-family:sans-serif;font-size:13;text-anchor:middle;" transform="matrix(1 0 0 1 2339.98 322)">Bold</text>
  <text style="stroke:none;fill:black;font-family:sans-serif;font-size:13;text-anchor:middle;" transform="matrix(1 0 0 1 2636.69 322)">Heavy</text>
  <text style="stroke:none;fill:black;font-family:sans-serif;font-size:13;text-anchor:middle;" transform="matrix(1 0 0 1 2933.4 322)">Black</text>
  <line style="fill:none;stroke:black;opacity:1;stroke-width:0.5;" x1="263" x2="3036" y1="1903" y2="1903"/>
  <g transform="matrix(1 0 0 1 263 1933)">
   <path d="M9.24805 0.830078Q10.8691 0.830078 12.2949 0.214844Q13.7207-0.400391 14.8096-1.49414Q15.8984-2.58789 16.5186-4.01367Q17.1387-5.43945 17.1387-7.05078Q17.1387-8.66211 16.5186-10.0879Q15.8984-11.5137 14.8047-12.6074Q13.7109-13.7012 12.2852-14.3164Q10.8594-14.9316 9.23828-14.9316Q7.62695-14.9316 6.20117-14.3164Q4.77539-13.7012 3.69141-12.6074Q2.60742-11.5137 1.9873-10.0879Q1.36719-8.66211 1.36719-7.05078Q1.36719-5.43945 1.9873-4.01367Q2.60742-2.58789 3.69629-1.49414Q4.78516-0.400391 6.21094 0.214844Q7.63672 0.830078 9.24805 0.830078ZM9.24805-0.654297Q7.91992-0.654297 6.7627-1.14746Q5.60547-1.64062 4.73145-2.51953Q3.85742-3.39844 3.36426-4.56055Q2.87109-5.72266 2.87109-7.05078Q2.87109-8.37891 3.35938-9.54102Q3.84766-10.7031 4.72168-11.582Q5.5957-12.4609 6.75293-12.9541Q7.91016-13.4473 9.23828-13.4473Q10.5762-13.4473 11.7334-12.9541Q12.8906-12.4609 13.7695-11.582Q14.6484-10.7031 15.1465-9.54102Q15.6445-8.37891 15.6445-7.05078Q15.6445-5.72266 15.1514-4.56055Q14.6582-3.39844 13.7842-2.51953Q12.9102-1.64062 11.748-1.14746Q10.5859-0.654297 9.24805-0.654297ZM5.6543-7.05078Q5.6543-6.72852 5.85938-6.52832Q6.06445-6.32812 6.40625-6.32812L8.51562-6.32812L8.51562-4.20898Q8.51562-3.88672 8.71094-3.67676Q8.90625-3.4668 9.23828-3.4668Q9.56055-3.4668 9.77051-3.67676Q9.98047-3.88672 9.98047-4.20898L9.98047-6.32812L12.0898-6.32812Q12.4219-6.32812 12.627-6.52832Q12.832-6.72852 12.832-7.05078Q12.832-7.38281 12.627-7.58789Q12.4219-7.79297 12.0898-7.79297L9.98047-7.79297L9.98047-9.90234Q9.98047-10.2344 9.77051-10.4443Q9.56055-10.6543 9.23828-10.6543Q8.90625-10.6543 8.71094-10.4443Q8.51562-10.2344 8.51562-9.90234L8.51562-7.79297L6.40625-7.79297Q6.06445-7.79297 5.85938-7.58789Q5.6543-7.38281 5.6543-7.05078Z"/>
  </g>
  <g transform="matrix(1 0 0 1 281.867 1933)">
   <path d="M11.709 2.91016Q13.75 2.91016 15.5518 2.12891Q17.3535 1.34766 18.7305-0.0292969Q20.1074-1.40625 20.8887-3.20801Q21.6699-5.00977 21.6699-7.05078Q21.6699-9.0918 20.8887-10.8936Q20.1074-12.6953 18.7305-14.0723Q17.3535-15.4492 15.5469-16.2305Q13.7402-17.0117 11.6992-17.0117Q9.6582-17.0117 7.85645-16.2305Q6.05469-15.4492 4.68262-14.0723Q3.31055-12.6953 2.5293-10.8936Q1.74805-9.0918 1.74805-7.05078Q1.74805-5.00977 2.5293-3.20801Q3.31055-1.40625 4.6875-0.0292969Q6.06445 1.34766 7.86621 2.12891Q9.66797 2.91016 11.709 2.91016ZM11.709 1.25Q9.98047 1.25 8.47656 0.605469Q6.97266-0.0390625 5.83496-1.17676Q4.69727-2.31445 4.05762-3.81836Q3.41797-5.32227 3.41797-7.05078Q3.41797-8.7793 4.05762-10.2832Q4.69727-11.7871 5.83008-12.9297Q6.96289-14.0723 8.4668-14.7119Q9.9707-15.3516 11.6992-15.3516Q13.4277-15.3516 14.9316-14.7119Q16.4355-14.0723 17.5781-12.9297Q18.7207-11.7871 19.3652-10.2832Q20.0098-8.7793 20.0098-7.05078Q20.0098-5.32227 19.3701-3.81836Q18.7305-2.31445 17.5928-1.17676Q16.4551-0.0390625 14.9463 0.605469Q13.4375 1.25 11.709 1.25ZM7.17773-7.05078Q7.17773-6.69922 7.41211-6.47461Q7.64648-6.25 8.01758-6.25L10.8887-6.25L10.8887-3.36914Q10.8887-2.99805 11.1133-2.76855Q11.3379-2.53906 11.6895-2.53906Q12.0605-2.53906 12.29-2.76855Q12.5195-2.99805 12.5195-3.36914L12.5195-6.25L15.4004-6.25Q15.7715-6.25 16.001-6.47461Q16.2305-6.69922 16.2305-7.05078Q16.2305-7.42188 16.001-7.65137Q15.7715-7.88086 15.4004-7.88086L12.5195-7.88086L12.5195-10.752Q12.5195-11.1328 12.29-11.3623Q12.0605-11.5918 11.6895-11.5918Q11.3379-11.5918 11.1133-11.3574Q10.8887-11.123 10.8887-10.752L10.8887-7.88086L8.01758-7.88086Q7.63672-7.88086 7.40723-7.65137Q7.17773-7.42188 7.17773-7.05078Z"/>
  </g>
  <g transform="matrix(1 0 0 1 305.646 1933)">
   <path d="M14.9707 5.66406Q17.0605 5.66406 18.96 5.01465Q20.8594 4.36523 22.4512 3.19336Q24.043 2.02148 25.2197 0.429688Q26.3965-1.16211 27.0459-3.06641Q27.6953-4.9707 27.6953-7.05078Q27.6953-9.14062 27.0459-11.04Q26.3965-12.9395 25.2197-14.5312Q24.043-16.123 22.4512-17.2998Q20.8594-18.4766 18.9551-19.126Q17.0508-19.7754 14.9609-19.7754Q12.8711-19.7754 10.9717-19.126Q9.07227-18.4766 7.48535-17.2998Q5.89844-16.123 4.72168-14.5312Q3.54492-12.9395 2.90039-11.04Q2.25586-9.14062 2.25586-7.05078Q2.25586-4.9707 2.90527-3.06641Q3.55469-1.16211 4.72656 0.429688Q5.89844 2.02148 7.49023 3.19336Q9.08203 4.36523 10.9814 5.01465Q12.8809 5.66406 14.9707 5.66406ZM14.9707 3.84766Q13.1641 3.84766 11.5283 3.2959Q9.89258 2.74414 8.53516 1.74805Q7.17773 0.751953 6.17676-0.610352Q5.17578-1.97266 4.62891-3.6084Q4.08203-5.24414 4.08203-7.05078Q4.08203-8.86719 4.62891-10.5029Q5.17578-12.1387 6.17188-13.501Q7.16797-14.8633 8.52539-15.8594Q9.88281-16.8555 11.5186-17.4023Q13.1543-17.9492 14.9609-17.9492Q16.7773-17.9492 18.4131-17.4023Q20.0488-16.8555 21.4111-15.8594Q22.7734-14.8633 23.7695-13.501Q24.7656-12.1387 25.3174-10.5029Q25.8691-8.86719 25.8691-7.05078Q25.8789-5.24414 25.332-3.6084Q24.7852-1.97266 23.7842-0.610352Q22.7832 0.751953 21.4209 1.74805Q20.0586 2.74414 18.4229 3.2959Q16.7871 3.84766 14.9707 3.84766ZM9.19922-7.05078Q9.19922-6.66992 9.45801-6.4209Q9.7168-6.17188 10.1172-6.17188L14.0625-6.17188L14.0625-2.2168Q14.0625-1.81641 14.3115-1.55762Q14.5605-1.29883 14.9512-1.29883Q15.3516-1.29883 15.6104-1.55273Q15.8691-1.80664 15.8691-2.2168L15.8691-6.17188L19.8242-6.17188Q20.2246-6.17188 20.4785-6.4209Q20.7324-6.66992 20.7324-7.05078Q20.7324-7.46094 20.4785-7.71484Q20.2246-7.96875 19.8242-7.96875L15.8691-7.96875L15.8691-11.9141Q15.8691-12.3242 15.6104-12.583Q15.3516-12.8418 14.9512-12.8418Q14.5605-12.8418 14.3115-12.583Q14.0625-12.3242 14.0625-11.9141L14.0625-7.96875L10.1172-7.96875Q9.70703-7.96875 9.45312-7.71484Q9.19922-7.46094 9.19922-7.05078Z"/>
  </g>
  <text style="stroke:none;fill:black;font-family:sans-serif;font-size:13;font-weight:bold;" transform="matrix(1 0 0 1 263 1953)">Design Variations</text>
  <text style="stroke:none;fill:black;font-family:sans-serif;font-size:13;" transform="matrix(1 0 0 1 263 1971)">Symbols are supported in up to nine weights and three scales.</text>
  <text style="stroke:none;fill:black;font-family:sans-serif;font-size:13;" transform="matrix(1 0 0 1 263 1989)">For optimal layout with text and other symbols, vertically align</text>
  <text style="stroke:none;fill:black;font-family:sans-serif;font-size:13;" transform="matrix(1 0 0 1 263 2007)">symbols with the adjacent text.</text>
  <line style="fill:none;stroke:#00AEEF;stroke-width:0.5;opacity:1.0;" x1="776" x2="776" y1="1919" y2="1933"/>
  <g transform="matrix(1 0 0 1 776 1933)">
   <path d="M3.31055 0.15625Q3.70117 0.15625 3.91602-0.00976562Q4.13086-0.175781 4.26758-0.585938L5.52734-4.0332L11.2891-4.0332L12.5488-0.585938Q12.6855-0.175781 12.9004-0.00976562Q13.1152 0.15625 13.4961 0.15625Q13.8867 0.15625 14.1162-0.0585938Q14.3457-0.273438 14.3457-0.644531Q14.3457-0.869141 14.2383-1.17188L9.6582-13.3691Q9.48242-13.8184 9.17969-14.043Q8.87695-14.2676 8.4082-14.2676Q7.5-14.2676 7.17773-13.3789L2.59766-1.16211Q2.49023-0.859375 2.49023-0.634766Q2.49023-0.263672 2.70996-0.0537109Q2.92969 0.15625 3.31055 0.15625ZM6.00586-5.51758L8.37891-12.0898L8.42773-12.0898L10.8008-5.51758Z"/>
  </g>
  <line style="fill:none;stroke:#00AEEF;stroke-width:0.5;opacity:1.0;" x1="793.197" x2="793.197" y1="1919" y2="1933"/>
  <text style="stroke:none;fill:black;font-family:sans-serif;font-size:13;font-weight:bold;" transform="matrix(1 0 0 1 776 1953)">Margins</text>
  <text style="stroke:none;fill:black;font-family:sans-serif;font-size:13;" transform="matrix(1 0 0 1 776 1971)">Leading and trailing margins on the left and right side of each symbol</text>
  <text style="stroke:none;fill:black;font-family:sans-serif;font-size:13;" transform="matrix(1 0 0 1 776 1989)">can be adjusted by modifying the x-location of the margin guidelines.</text>
  <text style="stroke:none;fill:black;font-family:sans-serif;font-size:13;" transform="matrix(1 0 0 1 776 2007)">Modifications are automatically applied proportionally to all</text>
  <text style="stroke:none;fill:black;font-family:sans-serif;font-size:13;" transform="matrix(1 0 0 1 776 2025)">scales and weights.</text>
  <g transform="matrix(1 0 0 1 1289 1933)">
   <path d="M2.8418 1.86523L4.54102 3.57422Q5.18555 4.22852 5.90332 4.17969Q6.62109 4.13086 7.31445 3.35938L18.0078-8.42773L17.041-9.4043L6.42578 2.27539Q6.16211 2.57812 5.89355 2.61719Q5.625 2.65625 5.27344 2.30469L4.10156 1.14258Q3.75 0.791016 3.79395 0.522461Q3.83789 0.253906 4.14062-0.0195312L15.6152-10.8203L14.6387-11.7871L3.04688-0.898438Q2.30469-0.214844 2.25098 0.498047Q2.19727 1.21094 2.8418 1.86523ZM9.25781-16.3281Q8.94531-16.0254 8.90625-15.6348Q8.86719-15.2441 9.04297-14.9512Q9.21875-14.6777 9.55566-14.541Q9.89258-14.4043 10.3809-14.5215Q11.4746-14.7754 12.5977-14.7314Q13.7207-14.6875 14.7949-13.9844L14.209-12.5293Q13.9551-11.9043 14.0674-11.4404Q14.1797-10.9766 14.5801-10.5664L16.875-8.25195Q17.2363-7.88086 17.5781-7.82227Q17.9199-7.76367 18.3398-7.8418L19.4043-8.03711L20.0684-7.36328L20.0293-6.80664Q20-6.43555 20.1221-6.12305Q20.2441-5.81055 20.6055-5.44922L21.3672-4.70703Q21.7285-4.3457 22.1533-4.33105Q22.5781-4.31641 22.9297-4.66797L25.8398-7.58789Q26.1914-7.93945 26.1816-8.35449Q26.1719-8.76953 25.8105-9.13086L25.0391-9.89258Q24.6875-10.2539 24.3799-10.3857Q24.0723-10.5176 23.7109-10.4883L23.1348-10.4395L22.4902-11.0742L22.7344-12.1973Q22.832-12.6172 22.6953-12.9834Q22.5586-13.3496 22.1191-13.7891L19.9219-15.9766Q18.6719-17.2168 17.2607-17.8369Q15.8496-18.457 14.4189-18.4814Q12.9883-18.5059 11.665-17.959Q10.3418-17.4121 9.25781-16.3281ZM10.752-15.957Q11.6602-16.6211 12.7002-16.9043Q13.7402-17.1875 14.8047-17.085Q15.8691-16.9824 16.8701-16.5137Q17.8711-16.0449 18.7012-15.2051L21.1328-12.793Q21.3086-12.6172 21.3525-12.4512Q21.3965-12.2852 21.3379-12.0312L21.0156-10.5469L22.5195-9.0625L23.5059-9.12109Q23.6914-9.13086 23.7891-9.09668Q23.8867-9.0625 24.0332-8.91602L24.6094-8.33984L22.168-5.89844L21.5918-6.47461Q21.4453-6.62109 21.4062-6.71875Q21.3672-6.81641 21.377-7.01172L21.4453-7.98828L19.9512-9.47266L18.4277-9.21875Q18.1836-9.16992 18.042-9.2041Q17.9004-9.23828 17.7148-9.41406L15.7129-11.416Q15.5176-11.5918 15.4932-11.7529Q15.4688-11.9141 15.5859-12.1875L16.4648-14.2773Q15.293-15.3711 13.8281-15.791Q12.3633-16.2109 10.8398-15.7617Q10.7227-15.7324 10.6885-15.8057Q10.6543-15.8789 10.752-15.957Z"/>
  </g>
  <text style="stroke:none;fill:black;font-family:sans-serif;font-size:13;font-weight:bold;" transform="matrix(1 0 0 1 1289 1953)">Exporting</text>
  <text style="stroke:none;fill:black;font-family:sans-serif;font-size:13;" transform="matrix(1 0 0 1 1289 1971)">Symbols should be outlined when exporting to ensure the</text>
  <text style="stroke:none;fill:black;font-family:sans-serif;font-size:13;" transform="matrix(1 0 0 1 1289 1989)">design is preserved when submitting to Xcode.</text>
  <text id="template-version" style="stroke:none;fill:black;font-family:sans-serif;font-size:13;text-anchor:end;" transform="matrix(1 0 0 1 3036 1933)">Template v.2.0</text>
  <text style="stroke:none;fill:black;font-family:sans-serif;font-size:13;text-anchor:end;" transform="matrix(1 0 0 1 3036 1951)">Requires Xcode 12 or greater</text>
  <text id="descriptive-name" style="stroke:none;fill:black;font-family:sans-serif;font-size:13;text-anchor:end;" transform="matrix(1 0 0 1 3036 1969)">Generated from star.circle.fill</text>
  <text style="stroke:none;fill:black;font-family:sans-serif;font-size:13;text-anchor:end;" transform="matrix(1 0 0 1 3036 1987)">Typeset at 100 points</text>
  <text style="stroke:none;fill:black;font-family:sans-serif;font-size:13;" transform="matrix(1 0 0 1 263 726)">Small</text>
  <text style="stroke:none;fill:black;font-family:sans-serif;font-size:13;" transform="matrix(1 0 0 1 263 1156)">Medium</text>
  <text style="stroke:none;fill:black;font-family:sans-serif;font-size:13;" transform="matrix(1 0 0 1 263 1586)">Large</text>
 </g>
 <g id="Guides">
  <g id="H-reference" style="fill:#27AAE1;stroke:none;" transform="matrix(1 0 0 1 339 696)">
   <path d="M0.993347 0L3.6377 0L29.3282-67.1326L30.0301-67.1326L30.0301-70.459L28.1227-70.459ZM11.6882-24.4797L46.9818-24.4797L46.2311-26.7288L12.4382-26.7288ZM55.1193 0L57.7637 0L30.6381-70.459L29.4327-70.459L29.4327-67.1326Z"/>
  </g>
  <line id="Baseline-S" style="fill:none;stroke:#27AAE1;opacity:1;stroke-width:0.5;" x1="263" x2="3036" y1="696" y2="696"/>
  <line id="Capline-S" style="fill:none;stroke:#27AAE1;opacity:1;stroke-width:0.5;" x1="263" x2="3036" y1="625.541" y2="625.541"/>
  <g id="H-reference" style="fill:#27AAE1;stroke:none;" transform="matrix(1 0 0 1 339 1126)">
   <path d="M0.993347 0L3.6377 0L29.3282-67.1326L30.0301-67.1326L30.0301-70.459L28.1227-70.459ZM11.6882-24.4797L46.9818-24.4797L46.2311-26.7288L12.4382-26.7288ZM55.1193 0L57.7637 0L30.6381-70.459L29.4327-70.459L29.4327-67.1326Z"/>
  </g>
  <line id="Baseline-M" style="fill:none;stroke:#27AAE1;opacity:1;stroke-width:0.5;" x1="263" x2="3036" y1="1126" y2="1126"/>
  <line id="Capline-M" style="fill:none;stroke:#27AAE1;opacity:1;stroke-width:0.5;" x1="263" x2="3036" y1="1055.54" y2="1055.54"/>
  <g id="H-reference" style="fill:#27AAE1;stroke:none;" transform="matrix(1 0 0 1 339 1556)">
   <path d="M0.993347 0L3.6377 0L29.3282-67.1326L30.0301-67.1326L30.0301-70.459L28.1227-70.459ZM11.6882-24.4797L46.9818-24.4797L46.2311-26.7288L12.4382-26.7288ZM55.1193 0L57.7637 0L30.6381-70.459L29.4327-70.459L29.4327-67.1326Z"/>
  </g>
  <line id="Baseline-L" style="fill:none;stroke:#27AAE1;opacity:1;stroke-width:0.5;" x1="263" x2="3036" y1="1556" y2="1556"/>
  <line id="Capline-L" style="fill:none;stroke:#27AAE1;opacity:1;stroke-width:0.5;" x1="263" x2="3036" y1="1485.54" y2="1485.54"/>
  <line id="left-margin" style="fill:none;stroke:#00AEEF;stroke-width:0.5;opacity:1.0;" x1="1391.32" x2="1391.32" y1="1030.79" y2="1150.12"/>
  <line id="right-margin" style="fill:none;stroke:#00AEEF;stroke-width:0.5;opacity:1.0;" x1="1508.37" x2="1508.37" y1="1030.79" y2="1150.12"/>
 </g>
 <g id="Symbols">
  <g id="Black-L" transform="matrix(1 0 0 1 2854.19 1556)">
   <path d="M79.1953 32.7252Q93.2356 32.7252 105.521 27.4303Q117.806 22.1354 127.174 12.7571Q136.542 3.37874 141.848-8.90649Q147.154-21.1917 147.154-35.2113Q147.154-49.2309 141.848-61.5161Q136.542-73.8013 127.164-83.1796Q117.785-92.558 105.5-97.8529Q93.2149-103.148 79.1746-103.148Q65.1563-103.148 52.8704-97.8529Q40.5846-92.558 31.2276-83.1796Q21.8707-73.8013 16.5647-61.5161Q11.2588-49.2309 11.2588-35.2113Q11.2588-21.1917 16.5647-8.90649Q21.8707 3.37874 31.238 12.7571Q40.6053 22.1354 52.8912 27.4303Q65.177 32.7252 79.1953 32.7252ZM62.3563-2.81839Q59.1716-0.430233 56.4754-2.24304Q53.7791-4.05585 55.1113-8.07473L61.7312-27.8254L44.7509-40.077Q42.9349-41.4533 42.569-43.4938Q42.2032-45.5344 43.4199-47.1364Q44.6366-48.7385 47.5191-48.6594L68.397-48.3843L74.738-68.3517Q76.0496-72.2863 79.207-72.2863Q82.3644-72.2863 83.6162-68.3517L90.0157-48.3843L110.892-48.6594Q113.894-48.7385 115.08-47.1066Q116.265-45.4747 115.841-43.4341Q115.417-41.3936 113.605-40.0783L96.6802-27.8838L103.243-8.07473Q104.635-3.88063 101.968-2.18463Q99.3007-0.488639 96.0564-2.81839L79.1953-15.1762Z"/>
  </g>
  <g id="Heavy-L" transform="matrix(1 0 0 1 2558.42 1556)">
   <path d="M78.2511 31.7672Q92.088 31.7672 104.202 26.5464Q116.316 21.3256 125.559 12.0677Q134.802 2.8099 140.04-9.30402Q145.279-21.4179 145.279-35.2251Q145.279-49.0322 140.04-61.1461Q134.802-73.2601 125.544-82.5179Q116.286-91.7758 104.172-96.9966Q92.0582-102.217 78.2213-102.217Q64.4202-102.217 52.3033-96.9966Q40.1863-91.7758 30.9613-82.5179Q21.7362-73.2601 16.4975-61.1461Q11.2588-49.0322 11.2588-35.2251Q11.2588-21.4179 16.4975-9.30402Q21.7362 2.8099 30.9761 12.0677Q40.2161 21.3256 52.333 26.5464Q64.45 31.7672 78.2511 31.7672ZM60.9729-2.56877Q57.907-0.270847 55.3306-2.02858Q52.7543-3.78631 54.0253-7.60851L60.8201-27.9134L43.3783-40.4696Q41.5922-41.8121 41.2588-43.7679Q40.9255-45.7236 42.1133-47.2552Q43.3011-48.7867 46.0425-48.7123L67.4793-48.4743L73.9914-68.9725Q75.2326-72.6962 78.272-72.6962Q81.3114-72.6962 82.5019-68.9725L89.0587-48.4743L110.489-48.7123Q113.332-48.7867 114.489-47.2298Q115.645-45.673 115.267-43.7172Q114.889-41.7615 113.121-40.4756L95.7118-27.958L102.468-7.60851Q103.79-3.65244 101.236-1.98396Q98.6816-0.315469 95.565-2.56877L78.2511-15.2593Z"/>
  </g>
  <g id="Bold-L" transform="matrix(1 0 0 1 2262.89 1556)">
   <path d="M77.0653 30.566Q90.6516 30.566 102.549 25.4396Q114.447 20.3133 123.533 11.2089Q132.619 2.10448 137.771-9.79333Q142.923-21.6912 142.923-35.2405Q142.923-48.7898 137.771-60.6877Q132.619-72.5855 123.515-81.6899Q114.41-90.7942 102.512-95.9206Q90.6146-101.047 77.0283-101.047Q63.4932-101.047 51.5882-95.9206Q39.6833-90.7942 30.623-81.6899Q21.5627-72.5855 16.4108-60.6877Q11.2588-48.7898 11.2588-35.2405Q11.2588-21.6912 16.4108-9.79333Q21.5627 2.10448 30.6415 11.2089Q39.7203 20.3133 51.6252 25.4396Q63.5301 30.566 77.0653 30.566ZM59.247-2.3471Q56.3858-0.204797 53.9954-1.85918Q51.6051-3.51357 52.7787-7.04668L59.775-28.0232L41.7795-40.9461Q40.07-42.2222 39.7803-44.0442Q39.4906-45.8663 40.6201-47.2887Q41.7495-48.7111 44.2727-48.6449L66.3893-48.4541L73.113-69.5922Q74.2497-73.0022 77.098-73.0022Q79.9463-73.0022 81.0396-69.5922L87.7924-48.4541L109.895-48.6449Q112.505-48.7111 113.598-47.267Q114.692-45.8228 114.373-44.0008Q114.054-42.1788 112.387-40.9603L94.3926-28.0524L101.374-7.04668Q102.591-3.42596 100.215-1.82998Q97.8394-0.234 94.9348-2.3471L77.0653-15.4443Z"/>
  </g>
  <g id="Semibold-L" transform="matrix(1 0 0 1 1966.99 1556)">
   <path d="M76.2478 29.7379Q89.6614 29.7379 101.41 24.6766Q113.159 19.6153 122.137 10.6168Q131.114 1.61818 136.206-10.1307Q141.299-21.8795 141.299-35.2511Q141.299-48.6228 136.206-60.3716Q131.114-72.1204 122.116-81.119Q113.117-90.1176 101.368-95.1789Q89.6194-100.24 76.2058-100.24Q62.854-100.24 51.0953-95.1789Q39.3365-90.1176 30.3898-81.119Q21.4432-72.1204 16.351-60.3716Q11.2588-48.6228 11.2588-35.2511Q11.2588-21.8795 16.351-10.1307Q21.4432 1.61818 30.4108 10.6168Q39.3785 19.6153 51.1372 24.6766Q62.896 29.7379 76.2478 29.7379ZM58.0571-2.19428Q55.3371-0.159262 53.075-1.7424Q50.8128-3.32555 51.9194-6.65936L59.0544-28.099L40.6773-41.2746Q39.0206-42.5049 38.761-44.2347Q38.5013-45.9646 39.5906-47.3118Q40.6799-48.659 43.0526-48.5984L65.6379-48.4402L72.5074-70.0194Q73.572-73.2132 76.2886-73.2132Q79.0053-73.2132 80.0314-70.0194L86.9195-48.4402L109.485-48.5984Q111.935-48.659 112.985-47.2926Q114.035-45.9262 113.757-44.1963Q113.478-42.4664 111.881-41.2945L93.4831-28.1175L100.619-6.65936Q101.764-3.26983 99.5116-1.72383Q97.2587-0.177836 94.5003-2.19428L76.2478-15.5718Z"/>
  </g>
  <g id="Medium-L" transform="matrix(1 0 0 1 1670.9 1556)">
   <path d="M75.6279 29.11Q88.9106 29.11 100.546 24.0981Q112.182 19.0862 121.078 10.1678Q129.973 1.24944 135.02-10.3864Q140.067-22.0223 140.067-35.2592Q140.067-48.4961 135.02-60.1319Q129.973-71.7678 121.055-80.6862Q112.137-89.6045 100.501-94.6164Q88.8648-99.6283 75.5822-99.6283Q62.3695-99.6283 50.7215-94.6164Q39.0736-89.6045 30.213-80.6862Q21.3525-71.7678 16.3056-60.1319Q11.2588-48.4961 11.2588-35.2592Q11.2588-22.0223 16.3056-10.3864Q21.3525 1.24944 30.2359 10.1678Q39.1193 19.0862 50.7673 24.0981Q62.4152 29.11 75.6279 29.11ZM57.1549-2.07841Q54.542-0.124736 52.377-1.65386Q50.2121-3.18298 51.2678-6.36568L58.5081-28.1564L39.8416-41.5237Q38.2249-42.7192 37.9881-44.3792Q37.7512-46.0392 38.81-47.3293Q39.8689-48.6194 42.1274-48.5632L65.0682-48.4296L72.0482-70.3434Q73.0582-73.3732 75.675-73.3732Q78.2917-73.3732 79.267-70.3434L86.2576-48.4296L109.174-48.5632Q111.502-48.6194 112.519-47.312Q113.537-46.0045 113.289-44.3445Q113.042-42.6846 111.498-41.5479L92.7935-28.1669L100.047-6.36568Q101.138-3.15144 98.9782-1.64334Q96.8185-0.13525 94.1709-2.07841L75.6279-15.6685Z"/>
  </g>
  <g id="Regular-L" transform="matrix(1 0 0 1 1374.99 1556)">
   <path d="M74.8194 28.2909Q87.9312 28.2909 99.4198 23.3434Q110.908 18.3959 119.697 9.58221Q128.485 0.768476 133.473-10.7201Q138.46-22.2086 138.46-35.2697Q138.46-48.3308 133.473-59.8193Q128.485-71.3079 119.671-80.1216Q110.858-88.9353 99.3691-93.8828Q87.8805-98.8303 74.7687-98.8303Q61.7374-98.8303 50.234-93.8828Q38.7306-88.9353 29.9824-80.1216Q21.2342-71.3079 16.2465-59.8193Q11.2588-48.3308 11.2588-35.2697Q11.2588-22.2086 16.2465-10.7201Q21.2342 0.768476 30.0077 9.58221Q38.7813 18.3959 50.2847 23.3434Q61.7881 28.2909 74.8194 28.2909ZM55.9781-1.92727Q53.5048-0.0797024 51.4667-1.53836Q49.4285-2.99702 50.4178-5.98261L57.7955-28.2313L38.7515-41.8486Q37.1871-42.9988 36.98-44.5676Q36.7728-46.1364 37.7919-47.3522Q38.811-48.5679 40.9208-48.5172L64.325-48.4158L71.4493-70.7659Q72.388-73.5818 74.8745-73.5818Q77.361-73.5818 78.2699-70.7659L85.3942-48.4158L108.769-48.5172Q110.938-48.5679 111.912-47.3373Q112.887-46.1067 112.68-44.5379Q112.473-42.9691 110.998-41.8784L91.894-28.2313L99.3014-5.98261Q100.321-2.99702 98.2824-1.53836Q96.2442-0.0797024 93.7411-1.92727L74.8194-15.7947Z"/>
  </g>
  <g id="Light-L" transform="matrix(1 0 0 1 1079.2 1556)">
   <path d="M73.8959 27.3674Q86.8436 27.3674 98.1577 22.502Q109.472 17.6366 118.137 8.95629Q126.802 0.275949 131.708-11.0381Q136.614-22.3522 136.614-35.2697Q136.614-48.1872 131.708-59.5013Q126.802-70.8154 118.122-79.4957Q109.442-88.176 98.1275-93.0414Q86.8134-97.9069 73.8658-97.9069Q60.9986-97.9069 49.6594-93.0414Q38.3201-88.176 29.6951-79.4957Q21.07-70.8154 16.1644-59.5013Q11.2588-48.1872 11.2588-35.2697Q11.2588-22.3522 16.1644-11.0381Q21.07 0.275949 29.7102 8.95629Q38.3503 17.6366 49.6895 22.502Q61.0287 27.3674 73.8959 27.3674ZM54.7058-2.33771Q52.7455-0.880059 51.0767-2.04115Q49.408-3.20224 50.1921-5.6953L57.6108-28.3134L38.3-42.1154Q37.0434-43.0604 36.8876-44.3521Q36.7318-45.6439 37.5662-46.6442Q38.4006-47.6444 40.0794-47.6142L63.8736-47.5539L71.1415-70.2323Q71.8955-72.4942 73.9613-72.4942Q76.0271-72.4942 76.7308-70.2323L83.9987-47.5539L107.743-47.6142Q109.522-47.6444 110.281-46.619Q111.04-45.5937 110.884-44.3019Q110.728-43.0101 109.623-42.1657L90.2112-28.3134L97.6802-5.6953Q98.5146-3.20224 96.8458-2.04115Q95.1771-0.880059 93.1665-2.33771L73.8959-16.4514Z"/>
  </g>
  <g id="Thin-L" transform="matrix(1 0 0 1 783.716 1556)">
   <path d="M72.6746 26.1461Q85.405 26.1461 96.4884 21.3892Q107.572 16.6324 116.074 8.12846Q124.577-0.375458 129.374-11.4588Q134.171-22.5422 134.171-35.2697Q134.171-47.9972 129.374-59.0806Q124.577-70.1639 116.073-78.6679Q107.569-87.1718 96.4854-91.9286Q85.402-96.6855 72.6715-96.6855Q60.0215-96.6855 48.8994-91.9286Q37.7773-87.1718 29.3151-78.6679Q20.8529-70.1639 16.0558-59.0806Q11.2588-47.9972 11.2588-35.2697Q11.2588-22.5422 16.0558-11.4588Q20.8529-0.375458 29.3166 8.12846Q37.7803 16.6324 48.9024 21.3892Q60.0245 26.1461 72.6746 26.1461ZM53.023-2.88055Q51.7412-1.9386 50.561-2.70613Q49.3808-3.47366 49.8935-5.31532L57.3666-28.4219L37.7029-42.4683Q36.8534-43.1418 36.7655-44.0672Q36.6775-44.9925 37.2676-45.7078Q37.8577-46.423 38.9665-46.42L63.2764-46.414L70.7344-69.5266Q71.244-71.0557 72.7535-71.0557Q74.2629-71.0557 74.6952-69.5266L82.1531-46.414L106.386-46.42Q107.649-46.423 108.123-45.6691Q108.597-44.9151 108.509-43.9898Q108.421-43.0644 107.804-42.5457L87.9856-28.4219L95.536-5.31532Q96.1261-3.47366 94.9459-2.70613Q93.7657-1.9386 92.4066-2.88055L72.6746-17.3199Z"/>
  </g>
  <g id="Ultralight-L" transform="matrix(1 0 0 1 487.631 1556)">
   <path d="M72.049 25.5205Q84.6682 25.5205 95.6335 20.8192Q106.599 16.118 115.018 7.70445Q123.437-0.709105 128.178-11.6743Q132.92-22.6395 132.92-35.2697Q132.92-47.8999 128.178-58.8651Q123.437-69.8303 115.023-78.2439Q106.61-86.6574 95.6443-91.3586Q84.6791-96.0599 72.0598-96.0599Q59.521-96.0599 48.5101-91.3586Q37.4993-86.6574 29.1205-78.2439Q20.7417-69.8303 16.0002-58.8651Q11.2588-47.8999 11.2588-35.2697Q11.2588-22.6395 16.0002-11.6743Q20.7417-0.709105 29.115 7.70445Q37.4884 16.118 48.4992 20.8192Q59.5101 25.5205 72.049 25.5205ZM52.161-3.15858Q51.2269-2.48077 50.2969-3.04673Q49.3669-3.61268 49.7406-5.12069L57.2414-28.4775L37.3971-42.649Q36.7561-43.1835 36.7029-43.9212Q36.6497-44.6589 37.1147-45.2281Q37.5797-45.7974 38.3966-45.8083L62.9706-45.8301L70.5258-69.1652Q70.9104-70.3188 72.1348-70.3188Q73.3593-70.3188 73.6525-69.1652L81.2078-45.8301L105.69-45.8083Q106.69-45.7974 107.018-45.1825Q107.346-44.5676 107.293-43.8299Q107.24-43.0922 106.873-42.7403L86.8456-28.4775L94.4377-5.12069Q94.9027-3.61268 93.9727-3.04673Q93.0428-2.48077 92.0173-3.15858L72.049-17.7648Z"/>
  </g>
  <g id="Black-M" transform="matrix(1 0 0 1 2871.36 1126)">
   <path d="M62.0423 18.1161Q73.0725 18.1161 82.714 13.9613Q92.3555 9.80654 99.704 2.45531Q107.052-4.89592 111.21-14.5374Q115.367-24.1789 115.367-35.2035Q115.367-46.2282 111.21-55.8697Q107.052-65.5112 99.7012-72.8624Q92.35-80.2136 82.7085-84.3684Q73.067-88.5232 62.0368-88.5232Q51.0119-88.5232 41.3705-84.3684Q31.7292-80.2136 24.3833-72.8624Q17.0375-65.5112 12.8801-55.8697Q8.72266-46.2282 8.72266-35.2035Q8.72266-24.1789 12.8801-14.5374Q17.0375-4.89592 24.3861 2.45531Q31.7347 9.80654 41.376 13.9613Q51.0174 18.1161 62.0423 18.1161ZM49.3266-10.3894Q46.8268-8.51446 44.6848-9.92594Q42.5428-11.3374 43.5998-14.5533L48.5838-29.4288L35.7889-38.6838Q34.398-39.7513 34.0935-41.3675Q33.789-42.9837 34.7315-44.2563Q35.6741-45.529 37.9701-45.4664L53.7176-45.2269L58.5027-60.2848Q59.5542-63.4393 62.0448-63.4393Q64.5354-63.4393 65.5301-60.2848L70.3723-45.2269L86.1201-45.4664Q88.5297-45.529 89.4442-44.2279Q90.3586-42.9269 89.997-41.3107Q89.6354-39.6945 88.2436-38.6835L75.5064-29.4859L80.433-14.5533Q81.5468-11.1661 79.4333-9.86885Q77.3199-8.57156 74.7633-10.3894L62.0423-19.711Z"/>
  </g>
  <g id="Heavy-M" transform="matrix(1 0 0 1 2575.48 1126)">
   <path d="M61.2045 17.2648Q72.0509 17.2648 81.541 13.1749Q91.0312 9.08498 98.2688 1.83921Q105.506-5.40657 109.606-14.8967Q113.705-24.3868 113.705-35.217Q113.705-46.0473 109.606-55.5374Q105.506-65.0275 98.2607-72.2733Q91.0149-79.519 81.5248-83.6089Q72.0347-87.6988 61.1882-87.6988Q50.3604-87.6988 40.8691-83.6089Q31.3778-79.519 24.1495-72.2733Q16.9211-65.0275 12.8219-55.5374Q8.72266-46.0473 8.72266-35.217Q8.72266-24.3868 12.8219-14.8967Q16.9211-5.40657 24.1576 1.83921Q31.394 9.08498 40.8853 13.1749Q50.3767 17.2648 61.2045 17.2648ZM48.0916-10.1075Q45.6605-8.28482 43.6017-9.66991Q41.5429-11.055 42.559-14.1241L47.7101-29.5072L34.4887-39.043Q33.0986-40.0964 32.8212-41.6553Q32.5438-43.2142 33.4751-44.4377Q34.4063-45.6613 36.6042-45.6014L52.8621-45.3944L57.8012-60.9409Q58.801-63.9403 61.215-63.9403Q63.6291-63.9403 64.5828-60.9409L69.5655-45.3944L85.8209-45.6014Q88.111-45.6613 89.0167-44.4147Q89.9225-43.1681 89.6015-41.6092Q89.2805-40.0503 87.8977-39.0454L74.715-29.5508L79.825-14.1241Q80.8871-10.9241 78.8501-9.62628Q76.8131-8.32844 74.336-10.1075L61.2045-19.7316Z"/>
  </g>
  <g id="Bold-M" transform="matrix(1 0 0 1 2279.69 1126)">
   <path d="M60.2672 16.3124Q70.9082 16.3124 80.2289 12.2951Q89.5497 8.27781 96.6634 1.15Q103.777-5.9778 107.811-15.2986Q111.845-24.6193 111.845-35.2321Q111.845-45.8449 107.811-55.1656Q103.777-64.4864 96.6493-71.6142Q89.5215-78.742 80.2007-82.7593Q70.8799-86.7766 60.2389-86.7766Q49.6317-86.7766 40.3082-82.7593Q30.9846-78.742 23.8878-71.6142Q16.791-64.4864 12.7568-55.1656Q8.72266-45.8449 8.72266-35.2321Q8.72266-24.6193 12.7568-15.2986Q16.791-5.9778 23.902 1.15Q31.0129 8.27781 40.3364 12.2951Q49.6599 16.3124 60.2672 16.3124ZM46.7101-9.79218Q44.3559-8.02793 42.3902-9.38349Q40.4244-10.7391 41.3946-13.6439L46.7328-29.5949L33.0343-39.4447Q31.6451-40.4824 31.398-41.9772Q31.1509-43.472 32.0696-44.6406Q32.9882-45.8093 35.0763-45.7525L51.9051-45.5818L57.0164-61.6749Q57.9584-64.5009 60.2868-64.5009Q62.6152-64.5009 63.5231-61.6749L68.663-45.5818L85.4863-45.7525Q87.6425-45.8093 88.5386-44.6236Q89.4347-43.4379 89.159-41.9431Q88.8834-40.4484 87.5108-39.4502L73.8297-29.6234L79.1449-13.6439Q80.1492-10.6534 78.1977-9.35495Q76.2462-8.05648 73.858-9.79218L60.2672-19.7546Z"/>
  </g>
  <g id="Semibold-M" transform="matrix(1 0 0 1 1983.62 1126)">
   <path d="M59.621 15.6559Q70.1203 15.6559 79.3244 11.6886Q88.5284 7.72135 95.5566 0.674869Q102.585-6.37161 106.574-15.5756Q110.564-24.7797 110.564-35.2425Q110.564-45.7053 106.574-54.9093Q102.585-64.1134 95.5384-71.1598Q88.4919-78.2063 79.2879-82.1736Q70.0838-86.1408 59.5845-86.1408Q49.1293-86.1408 39.9215-82.1736Q30.7136-78.2063 23.7075-71.1598Q16.7013-64.1134 12.712-54.9093Q8.72266-45.7053 8.72266-35.2425Q8.72266-24.7797 12.712-15.5756Q16.7013-6.37161 23.7257 0.674869Q30.7501 7.72135 39.958 11.6886Q49.1658 15.6559 59.621 15.6559ZM45.7577-9.5748Q43.4566-7.85083 41.5549-9.18604Q39.6533-10.5213 40.592-13.3128L46.0591-29.6553L32.0316-39.7217Q30.6431-40.7486 30.4169-42.1991Q30.1907-43.6497 31.1006-44.7805Q32.0106-45.9113 34.023-45.8566L51.2453-45.711L56.4755-62.1809Q57.3776-64.8873 59.6469-64.8873Q61.9162-64.8873 62.7926-62.1809L68.0408-45.711L85.2556-45.8566Q87.3195-45.9113 88.209-44.7676Q89.0984-43.6239 88.854-42.1733Q88.6097-40.7228 87.244-39.7293L73.2194-29.6735L78.6761-13.3128Q79.6405-10.4668 77.7479-9.16789Q75.8554-7.86899 73.5284-9.5748L59.621-19.7705Z"/>
  </g>
  <g id="Medium-M" transform="matrix(1 0 0 1 1687.4 1126)">
   <path d="M59.1311 15.158Q69.523 15.158 78.6385 11.2287Q87.754 7.29942 94.7174 0.314603Q101.681-6.67021 105.636-15.7857Q109.591-24.9012 109.591-35.2504Q109.591-45.5995 105.636-54.715Q101.681-63.8305 94.696-70.8153Q87.7112-77.8002 78.5957-81.7295Q69.4802-85.6588 59.0883-85.6588Q48.7484-85.6588 39.6283-81.7295Q30.5081-77.8002 23.5707-70.8153Q16.6333-63.8305 12.678-54.715Q8.72266-45.5995 8.72266-35.2504Q8.72266-24.9012 12.678-15.7857Q16.6333-6.67021 23.5921 0.314603Q30.5509 7.29942 39.671 11.2287Q48.7912 15.158 59.1311 15.158ZM45.0356-9.40997Q42.7746-7.71655 40.9216-9.03633Q39.0687-10.3561 39.9833-13.0618L45.5482-29.7011L31.2713-39.9317Q29.8833-40.9504 29.6729-42.3674Q29.4626-43.7845 30.3659-44.8866Q31.2693-45.9887 33.2243-45.9356L50.7451-45.8089L56.0653-62.5646Q56.9371-65.1803 59.1617-65.1803Q61.3863-65.1803 62.2386-62.5646L67.5691-45.8089L85.0806-45.9356Q87.0747-45.9887 87.959-44.8768Q88.8434-43.7649 88.6227-42.3479Q88.4021-40.9309 87.0418-39.9409L72.7567-29.7114L78.3205-13.0618Q79.2547-10.3253 77.4069-9.02605Q75.5591-7.72682 73.2786-9.40997L59.1311-19.7826Z"/>
  </g>
  <g id="Regular-M" transform="matrix(1 0 0 1 1391.32 1126)">
   <path d="M58.492 14.5087Q68.7438 14.5087 77.7439 10.6289Q86.7439 6.74907 93.6228-0.155309Q100.502-7.05969 104.413-16.0597Q108.324-25.0598 108.324-35.2606Q108.324-45.4615 104.413-54.4616Q100.502-63.4616 93.5973-70.366Q86.693-77.2704 77.6929-81.1502Q68.6929-85.03 58.441-85.03Q48.2515-85.03 39.2458-81.1502Q30.2401-77.2704 23.3923-70.366Q16.5446-63.4616 12.6336-54.4616Q8.72266-45.4615 8.72266-35.2606Q8.72266-25.0598 12.6336-16.0597Q16.5446-7.05969 23.4178-0.155309Q30.291 6.74907 39.2968 10.6289Q48.3025 14.5087 58.492 14.5087ZM44.0937-9.19497Q41.8851-7.54139 40.0956-8.84105Q38.306-10.1407 39.1895-12.7344L44.8819-29.7609L30.2797-40.2056Q28.8923-41.2136 28.7026-42.5869Q28.5129-43.9602 29.4076-45.0249Q30.3024-46.0896 32.1825-46.0386L50.0926-45.9367L55.5302-63.0651Q56.3627-65.5625 58.5288-65.5625Q60.695-65.5625 61.5161-63.0651L66.9537-45.9367L84.8525-46.0386Q86.7553-46.0896 87.633-45.0192Q88.5108-43.9489 88.3211-42.5756Q88.1314-41.2023 86.778-40.2169L72.1531-29.7609L77.8568-12.7344Q78.7516-10.1407 76.9621-8.84105Q75.1725-7.54139 72.9526-9.19497L58.492-19.7983Z"/>
  </g>
  <g id="Light-M" transform="matrix(1 0 0 1 1095.44 1126)">
   <path d="M57.664 13.6807Q67.7687 13.6807 76.6123 9.87453Q85.456 6.06831 92.2245-0.716478Q98.993-7.50127 102.83-16.3449Q106.668-25.1886 106.668-35.2606Q106.668-45.3327 102.83-54.1764Q98.993-63.02 92.2082-69.8048Q85.4234-76.5896 76.5798-80.3958Q67.7361-84.202 57.6315-84.202Q47.5892-84.202 38.7306-80.3958Q29.8721-76.5896 23.1348-69.8048Q16.3974-63.02 12.56-54.1764Q8.72266-45.3327 8.72266-35.2606Q8.72266-25.1886 12.56-16.3449Q16.3974-7.50127 23.151-0.716478Q29.9047 6.06831 38.7632 9.87453Q47.6217 13.6807 57.664 13.6807ZM42.9529-9.56295Q41.2043-8.25895 39.746-9.29182Q38.2876-10.3247 38.9871-12.4768L44.7163-29.8345L29.8749-40.4448Q28.7635-41.2688 28.6198-42.3937Q28.4761-43.5187 29.2052-44.3901Q29.9344-45.2616 31.4281-45.229L49.6878-45.1639L55.2542-62.5867Q55.9211-64.5873 57.7101-64.5873Q59.499-64.5873 60.1362-62.5867L65.7026-45.1639L83.9325-45.229Q85.4857-45.2616 86.1703-44.3753Q86.8548-43.4889 86.7111-42.364Q86.5674-41.2391 85.5452-40.4745L70.6444-29.8345L76.4033-12.4768Q77.1325-10.3247 75.6741-9.29182Q74.2158-8.25895 72.4375-9.56295L57.664-20.3871Z"/>
  </g>
  <g id="Thin-M" transform="matrix(1 0 0 1 799.828 1126)">
   <path d="M56.569 12.5857Q66.479 12.5857 75.1158 8.87683Q83.7526 5.16794 90.3751-1.45867Q96.9976-8.08529 100.738-16.7221Q104.478-25.3589 104.478-35.2606Q104.478-45.1624 100.738-53.7992Q96.9976-62.436 90.371-69.0626Q83.7444-75.6892 75.1076-79.3981Q66.4707-83.107 56.5608-83.107Q46.7131-83.107 38.0493-79.3981Q29.3854-75.6892 22.7941-69.0626Q16.2027-62.436 12.4627-53.7992Q8.72266-45.1624 8.72266-35.2606Q8.72266-25.3589 12.4627-16.7221Q16.2027-8.08529 22.7982-1.45867Q29.3936 5.16794 38.0575 8.87683Q46.7214 12.5857 56.569 12.5857ZM41.4442-10.0496Q40.304-9.20799 39.2836-9.88801Q38.2633-10.568 38.7194-12.1362L44.4973-29.9318L29.3396-40.7611Q28.5931-41.3418 28.5103-42.1382Q28.4274-42.9346 28.9376-43.5506Q29.4477-44.1666 30.4304-44.1583L49.1525-44.1419L54.8892-61.954Q55.3371-63.2976 56.6272-63.2976Q57.9173-63.2976 58.3111-61.954L64.0479-44.1419L82.7158-44.1583Q83.8067-44.1666 84.2357-43.5236Q84.6648-42.8806 84.5819-42.0842Q84.499-41.2877 83.9148-40.8152L68.649-29.9318L74.4809-12.1362Q74.9911-10.568 73.9708-9.88801Q72.9504-9.20799 71.7561-10.0496L56.569-21.1658Z"/>
  </g>
  <g id="Ultralight-M" transform="matrix(1 0 0 1 503.679 1126)">
   <path d="M56.0081 12.0248Q65.8184 12.0248 74.3492 8.36581Q82.8801 4.70678 89.4278-1.83882Q95.9756-8.38442 99.6657-16.9153Q103.356-25.4462 103.356-35.2606Q103.356-45.0751 99.6657-53.606Q95.9756-62.1369 89.43-68.6825Q82.8844-75.2281 74.3535-78.8871Q65.8226-82.5461 56.0124-82.5461Q46.2644-82.5461 37.7003-78.8871Q29.1361-75.2281 22.6196-68.6825Q16.103-62.1369 12.4128-53.606Q8.72266-45.0751 8.72266-35.2606Q8.72266-25.4462 12.4128-16.9153Q16.103-8.38442 22.6175-1.83882Q29.1319 4.70678 37.6961 8.36581Q46.2602 12.0248 56.0081 12.0248ZM40.6714-10.2989Q39.8428-9.69408 39.0468-10.1934Q38.2508-10.6927 38.5823-11.9617L44.3851-29.9817L29.0654-40.9232Q28.5059-41.3792 28.4542-42.0074Q28.4025-42.6355 28.8005-43.1206Q29.1985-43.6057 29.9194-43.6099L48.8783-43.6184L54.7023-61.63Q55.0379-62.637 56.0726-62.637Q57.1072-62.637 57.3763-61.63L63.2003-43.6184L82.0926-43.6099Q82.9467-43.6057 83.2448-43.0873Q83.543-42.569 83.4913-41.9408Q83.4396-41.3127 83.0798-40.9897L67.6269-29.9817L73.4963-11.9617Q73.8943-10.6927 73.0983-10.1934Q72.3023-9.69408 71.4071-10.2989L56.0081-21.5646Z"/>
  </g>
  <g id="Black-S" transform="matrix(1 0 0 1 2884.57 696)">
   <path d="M48.8281 6.78711Q57.5195 6.78711 65.1123 3.51562Q72.7051 0.244141 78.4912-5.54199Q84.2773-11.3281 87.5488-18.9209Q90.8203-26.5137 90.8203-35.2051Q90.8203-43.8965 87.5488-51.4893Q84.2773-59.082 78.4912-64.8682Q72.7051-70.6543 65.1123-73.9258Q57.5195-77.1973 48.8281-77.1973Q40.1367-77.1973 32.5439-73.9258Q24.9512-70.6543 19.165-64.8682Q13.3789-59.082 10.1074-51.4893Q6.83594-43.8965 6.83594-35.2051Q6.83594-26.5137 10.1074-18.9209Q13.3789-11.3281 19.165-5.54199Q24.9512 0.244141 32.5439 3.51562Q40.1367 6.78711 48.8281 6.78711ZM38.9648-15.8691Q37.0117-14.4043 35.3271-15.5029Q33.6426-16.6016 34.4727-19.1406L38.3301-30.6641L28.418-37.8418Q27.3438-38.6719 27.0996-39.9414Q26.8555-41.2109 27.5879-42.2119Q28.3203-43.2129 30.127-43.1641L42.334-42.9688L46.0449-54.6387Q46.875-57.1289 48.8281-57.1289Q50.7812-57.1289 51.5625-54.6387L55.3223-42.9688L67.5293-43.1641Q69.4336-43.2129 70.1416-42.1875Q70.8496-41.1621 70.5566-39.8926Q70.2637-38.623 69.1895-37.8418L59.3262-30.7129L63.1348-19.1406Q64.0137-16.4551 62.3535-15.4541Q60.6934-14.4531 58.6914-15.8691L48.8281-23.0957Z"/>
  </g>
  <g id="Heavy-S" transform="matrix(1 0 0 1 2588.47 696)">
   <path d="M48.2173 6.16479Q56.7704 6.16479 64.2537 2.9394Q71.737-0.285985 77.4425-5.99721Q83.1479-11.7084 86.3791-19.1917Q89.6102-26.675 89.6102-35.2166Q89.6102-43.7582 86.3791-51.2415Q83.1479-58.7248 77.4367-64.436Q71.7255-70.1472 64.2422-73.3726Q56.7589-76.598 48.2058-76.598Q39.6642-76.598 32.1809-73.3726Q24.6976-70.1472 18.9979-64.436Q13.2982-58.7248 10.0671-51.2415Q6.83594-43.7582 6.83594-35.2166Q6.83594-26.675 10.0671-19.1917Q13.2982-11.7084 19.0037-5.99721Q24.7092-0.285985 32.1924 2.9394Q39.6757 6.16479 48.2173 6.16479ZM38.0544-15.581Q36.1013-14.1162 34.4455-15.2263Q32.7898-16.3365 33.6083-18.8064L37.604-30.7217L27.3577-38.1184Q26.2489-38.96 26.0221-40.2122Q25.7952-41.4645 26.5392-42.4482Q27.2831-43.4319 29.0552-43.383L41.654-43.2108L45.4802-55.261Q46.2873-57.6821 48.2231-57.6821Q50.1589-57.6821 50.9287-55.261L54.7921-43.2108L67.391-43.383Q69.2377-43.4319 69.963-42.4295Q70.6883-41.4272 70.4241-40.1749Q70.16-38.9227 69.0512-38.1184L58.8421-30.759L62.8006-18.8064Q63.6564-16.2246 62.0193-15.189Q60.3822-14.1535 58.3918-15.581L48.2173-23.0381Z"/>
  </g>
  <g id="Bold-S" transform="matrix(1 0 0 1 2292.43 696)">
   <path d="M47.5342 5.46875Q55.9326 5.46875 63.2935 2.29492Q70.6543-0.878906 76.2695-6.50635Q81.8848-12.1338 85.0708-19.4946Q88.2568-26.8555 88.2568-35.2295Q88.2568-43.6035 85.0708-50.9644Q81.8848-58.3252 76.2573-63.9526Q70.6299-69.5801 63.269-72.7539Q55.9082-75.9277 47.5098-75.9277Q39.1357-75.9277 31.7749-72.7539Q24.4141-69.5801 18.811-63.9526Q13.208-58.3252 10.022-50.9644Q6.83594-43.6035 6.83594-35.2295Q6.83594-26.8555 10.022-19.4946Q13.208-12.1338 18.8232-6.50635Q24.4385-0.878906 31.7993 2.29492Q39.1602 5.46875 47.5342 5.46875ZM37.0361-15.2588Q35.083-13.7939 33.4595-14.917Q31.8359-16.04 32.6416-18.4326L36.792-30.7861L26.1719-38.4277Q25.0244-39.2822 24.8169-40.5151Q24.6094-41.748 25.3662-42.7124Q26.123-43.6768 27.8564-43.6279L40.8936-43.4814L44.8486-55.957Q45.6299-58.3008 47.5464-58.3008Q49.4629-58.3008 50.2197-55.957L54.1992-43.4814L67.2363-43.6279Q69.0186-43.6768 69.7632-42.7002Q70.5078-41.7236 70.2759-40.4907Q70.0439-39.2578 68.8965-38.4277L58.3008-30.8105L62.4268-18.4326Q63.2568-15.9668 61.6455-14.8926Q60.0342-13.8184 58.0566-15.2588L47.5342-22.9736Z"/>
  </g>
  <g id="Semibold-S" transform="matrix(1 0 0 1 1996.19 696)">
   <path d="M47.0632 4.98887Q55.355 4.98887 62.6314 1.85059Q69.9078-1.2877 75.4608-6.85737Q81.0139-12.4271 84.1688-19.7035Q87.3237-26.9799 87.3237-35.2384Q87.3237-43.4969 84.1688-50.7733Q81.0139-58.0497 75.4442-63.6194Q69.8745-69.1891 62.5981-72.3273Q55.3217-75.4656 47.0299-75.4656Q38.7714-75.4656 31.495-72.3273Q24.2186-69.1891 18.6822-63.6194Q13.1458-58.0497 9.99087-50.7733Q6.83594-43.4969 6.83594-35.2384Q6.83594-26.9799 9.99087-19.7035Q13.1458-12.4271 18.6988-6.85737Q24.2519-1.2877 31.5283 1.85059Q38.8047 4.98887 47.0632 4.98887ZM36.3341-15.0366Q34.381-13.5718 32.7796-14.7037Q31.1783-15.8356 31.9751-18.1749L36.2321-30.8306L25.3543-38.641Q24.1802-39.5044 23.986-40.724Q23.7918-41.9436 24.5575-42.8946Q25.3232-43.8456 27.03-43.7968L40.3692-43.6681L44.4132-56.4369Q45.1767-58.7273 47.0798-58.7273Q48.983-58.7273 49.731-56.4369L53.7904-43.6681L67.1297-43.7968Q68.8675-43.8456 69.6254-42.8868Q70.3834-41.928 70.1737-40.7084Q69.964-39.4889 68.7898-38.641L57.9275-30.8461L62.169-18.1749Q62.9813-15.7891 61.3878-14.6882Q59.7942-13.5873 57.8256-15.0366L47.0632-22.9292Z"/>
  </g>
  <g id="Medium-S" transform="matrix(1 0 0 1 1699.83 696)">
   <path d="M46.7061 4.625Q54.917 4.625 62.1294 1.51367Q69.3418-1.59766 74.8477-7.12354Q80.3535-12.6494 83.4849-19.8618Q86.6162-27.0742 86.6162-35.2451Q86.6162-43.416 83.4849-50.6284Q80.3535-57.8408 74.8276-63.3667Q69.3018-68.8926 62.0894-72.0039Q54.877-75.1152 46.666-75.1152Q38.4951-75.1152 31.2827-72.0039Q24.0703-68.8926 18.5845-63.3667Q13.0986-57.8408 9.96729-50.6284Q6.83594-43.416 6.83594-35.2451Q6.83594-27.0742 9.96729-19.8618Q13.0986-12.6494 18.6045-7.12354Q24.1104-1.59766 31.3228 1.51367Q38.5352 4.625 46.7061 4.625ZM35.8018-14.8682Q33.8486-13.4033 32.2642-14.542Q30.6797-15.6807 31.4697-17.9795L35.8076-30.8643L24.7344-38.8027Q23.54-39.6729 23.356-40.8823Q23.1719-42.0918 23.9443-43.0327Q24.7168-43.9736 26.4033-43.9248L39.9717-43.8096L44.083-56.8008Q44.833-59.0508 46.7261-59.0508Q48.6191-59.0508 49.3604-56.8008L53.4805-43.8096L67.0488-43.9248Q68.7529-43.9736 69.521-43.0283Q70.2891-42.083 70.0962-40.8735Q69.9033-39.6641 68.709-38.8027L57.6445-30.873L61.9736-17.9795Q62.7725-15.6543 61.1924-14.5332Q59.6123-13.4121 57.6504-14.8682L46.7061-22.8955Z"/>
  </g>
  <g id="Regular-S" transform="matrix(1 0 0 1 1403.58 696)">
   <path d="M46.2402 4.15039Q54.3457 4.15039 61.4746 1.07422Q68.6035-2.00195 74.0479-7.4707Q79.4922-12.9395 82.5928-20.0684Q85.6934-27.1973 85.6934-35.2539Q85.6934-43.3105 82.5928-50.4395Q79.4922-57.5684 74.0234-63.0371Q68.5547-68.5059 61.4258-71.582Q54.2969-74.6582 46.1914-74.6582Q38.1348-74.6582 31.0059-71.582Q23.877-68.5059 18.457-63.0371Q13.0371-57.5684 9.93652-50.4395Q6.83594-43.3105 6.83594-35.2539Q6.83594-27.1973 9.93652-20.0684Q13.0371-12.9395 18.4814-7.4707Q23.9258-2.00195 31.0547 1.07422Q38.1836 4.15039 46.2402 4.15039ZM35.1074-14.6484Q33.1543-13.1836 31.5918-14.3311Q30.0293-15.4785 30.8105-17.7246L35.2539-30.9082L23.9258-39.0137Q22.7051-39.8926 22.5342-41.0889Q22.3633-42.2852 23.1445-43.2129Q23.9258-44.1406 25.5859-44.0918L39.4531-43.9941L43.6523-57.2754Q44.3848-59.4727 46.2646-59.4727Q48.1445-59.4727 48.877-57.2754L53.0762-43.9941L66.9434-44.0918Q68.6035-44.1406 69.3848-43.2129Q70.166-42.2852 69.9951-41.0889Q69.8242-39.8926 68.6035-39.0137L57.2754-30.9082L61.7188-17.7246Q62.5-15.4785 60.9375-14.3311Q59.375-13.1836 57.4219-14.6484L46.2402-22.8516Z"/>
  </g>
  <g id="Light-S" transform="matrix(1 0 0 1 1107.6 696)">
   <path d="M45.5078 3.41797Q53.4831 3.41797 60.4736 0.406901Q67.4642-2.60417 72.8109-7.96712Q78.1576-13.3301 81.193-20.3206Q84.2285-27.3112 84.2285-35.2539Q84.2285-43.1966 81.193-50.1872Q78.1576-57.1777 72.7946-62.5407Q67.4316-67.9036 60.4411-70.9147Q53.4505-73.9258 45.4753-73.9258Q37.5488-73.9258 30.5501-70.9147Q23.5514-67.9036 18.2292-62.5407Q12.9069-57.1777 9.87142-50.1872Q6.83594-43.1966 6.83594-35.2539Q6.83594-27.3112 9.87142-20.3206Q12.9069-13.3301 18.2454-7.96712Q23.584-2.60417 30.5827 0.406901Q37.5814 3.41797 45.5078 3.41797ZM34.0983-14.974Q32.5521-13.8184 31.2826-14.7298Q30.013-15.6413 30.6315-17.4967L35.1074-30.9733L23.5677-39.2253Q22.5911-39.9414 22.4609-40.918Q22.3307-41.8945 22.9655-42.6514Q23.6003-43.4082 24.9186-43.3757L39.0951-43.3105L43.4082-56.8522Q43.9941-58.61 45.5404-58.61Q47.0866-58.61 47.6562-56.8522L51.9694-43.3105L66.1296-43.3757Q67.4805-43.4082 68.0908-42.6432Q68.7012-41.8783 68.571-40.9017Q68.4408-39.9251 67.513-39.2415L55.9408-30.9733L60.4329-17.4967Q61.0677-15.6413 59.7982-14.7298Q58.5286-13.8184 56.9661-14.974L45.5078-23.3724Z"/>
  </g>
  <g id="Thin-S" transform="matrix(1 0 0 1 811.863 696)">
   <path d="M44.5391 2.44928Q52.3422 2.44928 59.1498-0.47568Q65.9573-3.40064 71.1749-8.62368Q76.3924-13.8467 79.3418-20.6543Q82.2911-27.4619 82.2911-35.2539Q82.2911-43.0459 79.3418-49.8535Q76.3924-56.6611 71.1694-61.8841Q65.9463-67.1072 59.1387-70.0321Q52.3311-72.9571 44.5281-72.9571Q36.7739-72.9571 29.9474-70.0321Q23.1209-67.1072 17.9278-61.8841Q12.7347-56.6611 9.78531-49.8535Q6.83594-43.0459 6.83594-35.2539Q6.83594-27.4619 9.78531-20.6543Q12.7347-13.8467 17.9333-8.62368Q23.1319-3.40064 29.9584-0.47568Q36.7849 2.44928 44.5391 2.44928ZM32.7637-15.4045Q31.7556-14.6579 30.8736-15.2572Q29.9915-15.8565 30.3947-17.1954L34.9137-31.0594L23.0941-39.5051Q22.4405-40.006 22.3641-40.6919Q22.2877-41.3779 22.7287-41.9087Q23.1697-42.4395 24.036-42.4285L38.6215-42.4064L43.0853-56.2925Q43.4775-57.4691 44.5824-57.4691Q45.6874-57.4691 46.0418-56.2925L50.5056-42.4064L65.0532-42.4285Q65.9951-42.4395 66.3795-41.8898Q66.7638-41.3401 66.6874-40.6541Q66.611-39.9682 66.0708-39.5429L54.1756-31.0594L58.7324-17.1954Q59.1734-15.8565 58.2913-15.2572Q57.4093-14.6579 56.3634-15.4045L44.5391-24.0612Z"/>
  </g>
  <g id="Ultralight-S" transform="matrix(1 0 0 1 515.649 696)">
   <path d="M44.043 1.95312Q51.7578 1.95312 58.4717-0.927734Q65.1855-3.80859 70.3369-8.95996Q75.4883-14.1113 78.3936-20.8252Q81.2988-27.5391 81.2988-35.2539Q81.2988-42.9688 78.3936-49.6826Q75.4883-56.3965 70.3369-61.5479Q65.1855-66.6992 58.4717-69.5801Q51.7578-72.4609 44.043-72.4609Q36.377-72.4609 29.6387-69.5801Q22.9004-66.6992 17.7734-61.5479Q12.6465-56.3965 9.74121-49.6826Q6.83594-42.9688 6.83594-35.2539Q6.83594-27.5391 9.74121-20.8252Q12.6465-14.1113 17.7734-8.95996Q22.9004-3.80859 29.6387-0.927734Q36.377 1.95312 44.043 1.95312ZM32.0801-15.625Q31.3477-15.0879 30.6641-15.5273Q29.9805-15.9668 30.2734-17.041L34.8145-31.1035L22.8516-39.6484Q22.3633-40.0391 22.3145-40.5762Q22.2656-41.1133 22.6074-41.5283Q22.9492-41.9434 23.584-41.9434L38.3789-41.9434L42.9199-56.0059Q43.2129-56.8848 44.0918-56.8848Q44.9707-56.8848 45.2148-56.0059L49.7559-41.9434L64.502-41.9434Q65.2344-41.9434 65.5029-41.5039Q65.7715-41.0645 65.7227-40.5273Q65.6738-39.9902 65.332-39.6973L53.2715-31.1035L57.8613-17.041Q58.2031-15.9668 57.5195-15.5273Q56.8359-15.0879 56.0547-15.625L44.043-24.4141Z"/>
  </g>
 </g>
</svg>
